<svg xmlns="http://www.w3.org/2000/svg" xmlns:xlink="http://www.w3.org/1999/xlink" viewBox="0 0 76.47 76.48"><defs><linearGradient id="a" x1="74.94" x2="34.37" y1="96.88" y2="15.74" gradientTransform="matrix(1, 0, 0, -1, 0, 112)" gradientUnits="userSpaceOnUse"><stop offset="0" stop-color="#ffa436"/><stop offset=".32" stop-color="#ff4f5e"/><stop offset=".66" stop-color="#ff298a"/><stop offset="1" stop-color="#9059ff"/></linearGradient><linearGradient id="b" x1="52.33" x2="57.76" y1="101.51" y2="10.95" xlink:href="#a"/><linearGradient id="c" x1="40.9" x2="69.59" y1="99.3" y2="13.23" xlink:href="#a"/></defs><path fill="none" stroke="url(#a)" stroke-linecap="round" stroke-width="10" d="M88.23,55A33.23,33.23,0,0,0,55,21.77m0,66.46A33.23,33.23,0,0,1,21.77,55" transform="translate(-16.77 -16.76)"/><path fill="none" stroke="url(#b)" stroke-linecap="round" stroke-width="10" d="M83.78,38.38a33.24,33.24,0,0,0-45.4-12.16M71.62,83.78a33.23,33.23,0,0,1-45.4-12.16" opacity=".5" transform="translate(-16.77 -16.76)" style="isolation:isolate"/><path fill="none" stroke="url(#c)" stroke-linecap="round" stroke-width="10" d="M78.5,31.5a33.23,33.23,0,0,0-47,0m47,47a33.23,33.23,0,0,1-47,0" opacity=".25" transform="translate(-16.77 -16.76)" style="isolation:isolate"/></svg>